<svg width="170" height="15" viewBox="0 0 170 15" fill="none" xmlns="http://www.w3.org/2000/svg">
<rect width="170" height="15" fill="white"/>
<path d="M8.299 9.779H10.829V11H6.759V3.322H8.299V9.779ZM17.4728 7.821C17.4728 8.041 17.4582 8.239 17.4288 8.415H12.9738C13.0105 8.855 13.1645 9.19967 13.4358 9.449C13.7072 9.69833 14.0408 9.823 14.4368 9.823C15.0088 9.823 15.4158 9.57733 15.6578 9.086H17.3188C17.1428 9.67267 16.8055 10.1567 16.3068 10.538C15.8082 10.912 15.1958 11.099 14.4698 11.099C13.8832 11.099 13.3552 10.9707 12.8858 10.714C12.4238 10.45 12.0608 10.0797 11.7968 9.603C11.5402 9.12633 11.4118 8.57633 11.4118 7.953C11.4118 7.32233 11.5402 6.76867 11.7968 6.292C12.0535 5.81533 12.4128 5.44867 12.8748 5.192C13.3368 4.93533 13.8685 4.807 14.4698 4.807C15.0492 4.807 15.5662 4.93167 16.0208 5.181C16.4828 5.43033 16.8385 5.786 17.0878 6.248C17.3445 6.70267 17.4728 7.227 17.4728 7.821ZM15.8778 7.381C15.8705 6.985 15.7275 6.66967 15.4488 6.435C15.1702 6.193 14.8292 6.072 14.4258 6.072C14.0445 6.072 13.7218 6.18933 13.4578 6.424C13.2012 6.65133 13.0435 6.97033 12.9848 7.381H15.8778ZM18.2009 7.931C18.2009 7.315 18.3219 6.76867 18.5639 6.292C18.8132 5.81533 19.1469 5.44867 19.5649 5.192C19.9902 4.93533 20.4632 4.807 20.9839 4.807C21.4386 4.807 21.8346 4.89867 22.1719 5.082C22.5166 5.26533 22.7916 5.49633 22.9969 5.775V4.906H24.5479V11H22.9969V10.109C22.7989 10.395 22.5239 10.6333 22.1719 10.824C21.8272 11.0073 21.4276 11.099 20.9729 11.099C20.4596 11.099 19.9902 10.967 19.5649 10.703C19.1469 10.439 18.8132 10.0687 18.5639 9.592C18.3219 9.108 18.2009 8.55433 18.2009 7.931ZM22.9969 7.953C22.9969 7.579 22.9236 7.26 22.7769 6.996C22.6302 6.72467 22.4322 6.51933 22.1829 6.38C21.9336 6.23333 21.6659 6.16 21.3799 6.16C21.0939 6.16 20.8299 6.22967 20.5879 6.369C20.3459 6.50833 20.1479 6.71367 19.9939 6.985C19.8472 7.249 19.7739 7.56433 19.7739 7.931C19.7739 8.29767 19.8472 8.62033 19.9939 8.899C20.1479 9.17033 20.3459 9.37933 20.5879 9.526C20.8372 9.67267 21.1012 9.746 21.3799 9.746C21.6659 9.746 21.9336 9.67633 22.1829 9.537C22.4322 9.39033 22.6302 9.185 22.7769 8.921C22.9236 8.64967 22.9969 8.327 22.9969 7.953ZM28.593 9.581L30.133 4.906H31.772L29.517 11H27.647L25.403 4.906H27.053L28.593 9.581ZM38.3019 7.821C38.3019 8.041 38.2873 8.239 38.2579 8.415H33.8029C33.8396 8.855 33.9936 9.19967 34.2649 9.449C34.5363 9.69833 34.8699 9.823 35.2659 9.823C35.8379 9.823 36.2449 9.57733 36.4869 9.086H38.1479C37.9719 9.67267 37.6346 10.1567 37.1359 10.538C36.6373 10.912 36.0249 11.099 35.2989 11.099C34.7123 11.099 34.1843 10.9707 33.7149 10.714C33.2529 10.45 32.8899 10.0797 32.6259 9.603C32.3693 9.12633 32.2409 8.57633 32.2409 7.953C32.2409 7.32233 32.3693 6.76867 32.6259 6.292C32.8826 5.81533 33.2419 5.44867 33.7039 5.192C34.1659 4.93533 34.6976 4.807 35.2989 4.807C35.8783 4.807 36.3953 4.93167 36.8499 5.181C37.3119 5.43033 37.6676 5.786 37.9169 6.248C38.1736 6.70267 38.3019 7.227 38.3019 7.821ZM36.7069 7.381C36.6996 6.985 36.5566 6.66967 36.2779 6.435C35.9993 6.193 35.6583 6.072 35.2549 6.072C34.8736 6.072 34.5509 6.18933 34.2869 6.424C34.0303 6.65133 33.8726 6.97033 33.8139 7.381H36.7069ZM47.7671 12.353L46.6011 10.956C46.2784 11.0367 45.9484 11.077 45.6111 11.077C44.8924 11.077 44.2324 10.9083 43.6311 10.571C43.0298 10.2337 42.5531 9.768 42.2011 9.174C41.8491 8.57267 41.6731 7.89433 41.6731 7.139C41.6731 6.391 41.8491 5.72 42.2011 5.126C42.5531 4.52467 43.0298 4.05533 43.6311 3.718C44.2324 3.38067 44.8924 3.212 45.6111 3.212C46.3371 3.212 46.9971 3.38067 47.5911 3.718C48.1924 4.05533 48.6654 4.52467 49.0101 5.126C49.3621 5.72 49.5381 6.391 49.5381 7.139C49.5381 7.821 49.3914 8.44433 49.0981 9.009C48.8121 9.56633 48.4198 10.021 47.9211 10.373L49.6811 12.353H47.7671ZM43.2571 7.139C43.2571 7.65233 43.3561 8.10333 43.5541 8.492C43.7521 8.88067 44.0271 9.18133 44.3791 9.394C44.7384 9.59933 45.1491 9.702 45.6111 9.702C46.0731 9.702 46.4801 9.59933 46.8321 9.394C47.1841 9.18133 47.4591 8.88067 47.6571 8.492C47.8551 8.10333 47.9541 7.65233 47.9541 7.139C47.9541 6.62567 47.8551 6.17833 47.6571 5.797C47.4591 5.40833 47.1841 5.11133 46.8321 4.906C46.4801 4.70067 46.0731 4.598 45.6111 4.598C45.1491 4.598 44.7384 4.70067 44.3791 4.906C44.0271 5.11133 43.7521 5.40833 43.5541 5.797C43.3561 6.17833 43.2571 6.62567 43.2571 7.139ZM56.4583 4.906V11H54.9073V10.23C54.7093 10.494 54.449 10.703 54.1263 10.857C53.811 11.0037 53.4663 11.077 53.0923 11.077C52.6156 11.077 52.194 10.978 51.8273 10.78C51.4606 10.5747 51.171 10.2777 50.9583 9.889C50.753 9.493 50.6503 9.02367 50.6503 8.481V4.906H52.1903V8.261C52.1903 8.745 52.3113 9.119 52.5533 9.383C52.7953 9.63967 53.1253 9.768 53.5433 9.768C53.9686 9.768 54.3023 9.63967 54.5443 9.383C54.7863 9.119 54.9073 8.745 54.9073 8.261V4.906H56.4583ZM60.6838 11.099C60.0971 11.099 59.5691 10.9707 59.0998 10.714C58.6304 10.45 58.2601 10.0797 57.9888 9.603C57.7248 9.12633 57.5928 8.57633 57.5928 7.953C57.5928 7.32967 57.7284 6.77967 57.9998 6.303C58.2784 5.82633 58.6561 5.45967 59.1328 5.203C59.6094 4.939 60.1411 4.807 60.7278 4.807C61.3144 4.807 61.8461 4.939 62.3228 5.203C62.7994 5.45967 63.1734 5.82633 63.4448 6.303C63.7234 6.77967 63.8628 7.32967 63.8628 7.953C63.8628 8.57633 63.7198 9.12633 63.4337 9.603C63.1551 10.0797 62.7738 10.45 62.2898 10.714C61.8131 10.9707 61.2778 11.099 60.6838 11.099ZM60.6838 9.757C60.9624 9.757 61.2228 9.691 61.4648 9.559C61.7141 9.41967 61.9121 9.21433 62.0588 8.943C62.2054 8.67167 62.2788 8.34167 62.2788 7.953C62.2788 7.37367 62.1248 6.93 61.8168 6.622C61.5161 6.30667 61.1458 6.149 60.7058 6.149C60.2658 6.149 59.8954 6.30667 59.5948 6.622C59.3014 6.93 59.1548 7.37367 59.1548 7.953C59.1548 8.53233 59.2978 8.97967 59.5838 9.295C59.8771 9.603 60.2438 9.757 60.6838 9.757ZM66.7854 6.171V9.119C66.7854 9.32433 66.8331 9.47467 66.9284 9.57C67.0311 9.658 67.1997 9.702 67.4344 9.702H68.1494V11H67.1814C65.8834 11 65.2344 10.3693 65.2344 9.108V6.171H64.5084V4.906H65.2344V3.399H66.7854V4.906H68.1494V6.171H66.7854ZM68.861 7.931C68.861 7.315 68.982 6.76867 69.224 6.292C69.4734 5.81533 69.807 5.44867 70.225 5.192C70.6504 4.93533 71.1234 4.807 71.644 4.807C72.0987 4.807 72.4947 4.89867 72.832 5.082C73.1767 5.26533 73.4517 5.49633 73.657 5.775V4.906H75.208V11H73.657V10.109C73.459 10.395 73.184 10.6333 72.832 10.824C72.4874 11.0073 72.0877 11.099 71.633 11.099C71.1197 11.099 70.6504 10.967 70.225 10.703C69.807 10.439 69.4734 10.0687 69.224 9.592C68.982 9.108 68.861 8.55433 68.861 7.931ZM73.657 7.953C73.657 7.579 73.5837 7.26 73.437 6.996C73.2904 6.72467 73.0924 6.51933 72.843 6.38C72.5937 6.23333 72.326 6.16 72.04 6.16C71.754 6.16 71.49 6.22967 71.248 6.369C71.006 6.50833 70.808 6.71367 70.654 6.985C70.5074 7.249 70.434 7.56433 70.434 7.931C70.434 8.29767 70.5074 8.62033 70.654 8.899C70.808 9.17033 71.006 9.37933 71.248 9.526C71.4974 9.67267 71.7614 9.746 72.04 9.746C72.326 9.746 72.5937 9.67633 72.843 9.537C73.0924 9.39033 73.2904 9.185 73.437 8.921C73.5837 8.64967 73.657 8.327 73.657 7.953ZM83.2932 11L81.5992 8.008H80.8732V11H79.3332V3.322H82.2152C82.8092 3.322 83.3152 3.42833 83.7332 3.641C84.1512 3.84633 84.4629 4.12867 84.6682 4.488C84.8809 4.84 84.9872 5.236 84.9872 5.676C84.9872 6.182 84.8406 6.64033 84.5472 7.051C84.2539 7.45433 83.8176 7.733 83.2382 7.887L85.0752 11H83.2932ZM80.8732 6.853H82.1602C82.5782 6.853 82.8899 6.754 83.0952 6.556C83.3006 6.35067 83.4032 6.06833 83.4032 5.709C83.4032 5.357 83.3006 5.08567 83.0952 4.895C82.8899 4.697 82.5782 4.598 82.1602 4.598H80.8732V6.853ZM92.0451 7.821C92.0451 8.041 92.0304 8.239 92.0011 8.415H87.5461C87.5828 8.855 87.7368 9.19967 88.0081 9.449C88.2794 9.69833 88.6131 9.823 89.0091 9.823C89.5811 9.823 89.9881 9.57733 90.2301 9.086H91.8911C91.7151 9.67267 91.3778 10.1567 90.8791 10.538C90.3804 10.912 89.7681 11.099 89.0421 11.099C88.4554 11.099 87.9274 10.9707 87.4581 10.714C86.9961 10.45 86.6331 10.0797 86.3691 9.603C86.1124 9.12633 85.9841 8.57633 85.9841 7.953C85.9841 7.32233 86.1124 6.76867 86.3691 6.292C86.6258 5.81533 86.9851 5.44867 87.4471 5.192C87.9091 4.93533 88.4408 4.807 89.0421 4.807C89.6214 4.807 90.1384 4.93167 90.5931 5.181C91.0551 5.43033 91.4108 5.786 91.6601 6.248C91.9168 6.70267 92.0451 7.227 92.0451 7.821ZM90.4501 7.381C90.4428 6.985 90.2998 6.66967 90.0211 6.435C89.7424 6.193 89.4014 6.072 88.9981 6.072C88.6168 6.072 88.2941 6.18933 88.0301 6.424C87.7734 6.65133 87.6158 6.97033 87.5571 7.381H90.4501ZM95.5012 11.099C95.0025 11.099 94.5552 11.011 94.1592 10.835C93.7632 10.6517 93.4478 10.406 93.2132 10.098C92.9858 9.79 92.8612 9.449 92.8392 9.075H94.3902C94.4195 9.30967 94.5332 9.504 94.7312 9.658C94.9365 9.812 95.1895 9.889 95.4902 9.889C95.7835 9.889 96.0108 9.83033 96.1722 9.713C96.3408 9.59567 96.4252 9.44533 96.4252 9.262C96.4252 9.064 96.3225 8.91733 96.1172 8.822C95.9192 8.71933 95.6002 8.60933 95.1602 8.492C94.7055 8.382 94.3315 8.26833 94.0382 8.151C93.7522 8.03367 93.5028 7.854 93.2902 7.612C93.0848 7.37 92.9822 7.04367 92.9822 6.633C92.9822 6.29567 93.0775 5.98767 93.2682 5.709C93.4662 5.43033 93.7448 5.21033 94.1042 5.049C94.4708 4.88767 94.8998 4.807 95.3912 4.807C96.1172 4.807 96.6965 4.99033 97.1292 5.357C97.5618 5.71633 97.8002 6.204 97.8442 6.82H96.3702C96.3482 6.578 96.2455 6.38733 96.0622 6.248C95.8862 6.10133 95.6478 6.028 95.3472 6.028C95.0685 6.028 94.8522 6.07933 94.6982 6.182C94.5515 6.28467 94.4782 6.42767 94.4782 6.611C94.4782 6.81633 94.5808 6.974 94.7862 7.084C94.9915 7.18667 95.3105 7.293 95.7432 7.403C96.1832 7.513 96.5462 7.62667 96.8322 7.744C97.1182 7.86133 97.3638 8.04467 97.5692 8.294C97.7818 8.536 97.8918 8.85867 97.8992 9.262C97.8992 9.614 97.8002 9.92933 97.6022 10.208C97.4115 10.4867 97.1328 10.7067 96.7662 10.868C96.4068 11.022 95.9852 11.099 95.5012 11.099ZM104.828 7.821C104.828 8.041 104.814 8.239 104.784 8.415H100.329C100.366 8.855 100.52 9.19967 100.791 9.449C101.063 9.69833 101.396 9.823 101.792 9.823C102.364 9.823 102.771 9.57733 103.013 9.086H104.674C104.498 9.67267 104.161 10.1567 103.662 10.538C103.164 10.912 102.551 11.099 101.825 11.099C101.239 11.099 100.711 10.9707 100.241 10.714C99.7793 10.45 99.4163 10.0797 99.1523 9.603C98.8956 9.12633 98.7673 8.57633 98.7673 7.953C98.7673 7.32233 98.8956 6.76867 99.1523 6.292C99.409 5.81533 99.7683 5.44867 100.23 5.192C100.692 4.93533 101.224 4.807 101.825 4.807C102.405 4.807 102.922 4.93167 103.376 5.181C103.838 5.43033 104.194 5.786 104.443 6.248C104.7 6.70267 104.828 7.227 104.828 7.821ZM103.233 7.381C103.226 6.985 103.083 6.66967 102.804 6.435C102.526 6.193 102.185 6.072 101.781 6.072C101.4 6.072 101.077 6.18933 100.813 6.424C100.557 6.65133 100.399 6.97033 100.34 7.381H103.233ZM107.745 6.171V9.119C107.745 9.32433 107.793 9.47467 107.888 9.57C107.991 9.658 108.16 9.702 108.394 9.702H109.109V11H108.141C106.843 11 106.194 10.3693 106.194 9.108V6.171H105.468V4.906H106.194V3.399H107.745V4.906H109.109V6.171H107.745ZM117.194 7.062C117.627 7.14267 117.982 7.359 118.261 7.711C118.54 8.063 118.679 8.46633 118.679 8.921C118.679 9.33167 118.576 9.69467 118.371 10.01C118.173 10.318 117.883 10.56 117.502 10.736C117.121 10.912 116.67 11 116.149 11H112.838V3.322H116.006C116.527 3.322 116.974 3.40633 117.348 3.575C117.729 3.74367 118.015 3.97833 118.206 4.279C118.404 4.57967 118.503 4.92067 118.503 5.302C118.503 5.74933 118.382 6.12333 118.14 6.424C117.905 6.72467 117.59 6.93733 117.194 7.062ZM114.378 6.49H115.786C116.153 6.49 116.435 6.40933 116.633 6.248C116.831 6.07933 116.93 5.841 116.93 5.533C116.93 5.225 116.831 4.98667 116.633 4.818C116.435 4.64933 116.153 4.565 115.786 4.565H114.378V6.49ZM115.929 9.746C116.303 9.746 116.593 9.658 116.798 9.482C117.011 9.306 117.117 9.05667 117.117 8.734C117.117 8.404 117.007 8.14733 116.787 7.964C116.567 7.77333 116.27 7.678 115.896 7.678H114.378V9.746H115.929ZM119.51 7.931C119.51 7.315 119.631 6.76867 119.873 6.292C120.123 5.81533 120.456 5.44867 120.874 5.192C121.3 4.93533 121.773 4.807 122.293 4.807C122.748 4.807 123.144 4.89867 123.481 5.082C123.826 5.26533 124.101 5.49633 124.306 5.775V4.906H125.857V11H124.306V10.109C124.108 10.395 123.833 10.6333 123.481 10.824C123.137 11.0073 122.737 11.099 122.282 11.099C121.769 11.099 121.3 10.967 120.874 10.703C120.456 10.439 120.123 10.0687 119.873 9.592C119.631 9.108 119.51 8.55433 119.51 7.931ZM124.306 7.953C124.306 7.579 124.233 7.26 124.086 6.996C123.94 6.72467 123.742 6.51933 123.492 6.38C123.243 6.23333 122.975 6.16 122.689 6.16C122.403 6.16 122.139 6.22967 121.897 6.369C121.655 6.50833 121.457 6.71367 121.303 6.985C121.157 7.249 121.083 7.56433 121.083 7.931C121.083 8.29767 121.157 8.62033 121.303 8.899C121.457 9.17033 121.655 9.37933 121.897 9.526C122.147 9.67267 122.411 9.746 122.689 9.746C122.975 9.746 123.243 9.67633 123.492 9.537C123.742 9.39033 123.94 9.185 124.086 8.921C124.233 8.64967 124.306 8.327 124.306 7.953ZM129.694 11.099C129.195 11.099 128.748 11.011 128.352 10.835C127.956 10.6517 127.64 10.406 127.406 10.098C127.178 9.79 127.054 9.449 127.032 9.075H128.583C128.612 9.30967 128.726 9.504 128.924 9.658C129.129 9.812 129.382 9.889 129.683 9.889C129.976 9.889 130.203 9.83033 130.365 9.713C130.533 9.59567 130.618 9.44533 130.618 9.262C130.618 9.064 130.515 8.91733 130.31 8.822C130.112 8.71933 129.793 8.60933 129.353 8.492C128.898 8.382 128.524 8.26833 128.231 8.151C127.945 8.03367 127.695 7.854 127.483 7.612C127.277 7.37 127.175 7.04367 127.175 6.633C127.175 6.29567 127.27 5.98767 127.461 5.709C127.659 5.43033 127.937 5.21033 128.297 5.049C128.663 4.88767 129.092 4.807 129.584 4.807C130.31 4.807 130.889 4.99033 131.322 5.357C131.754 5.71633 131.993 6.204 132.037 6.82H130.563C130.541 6.578 130.438 6.38733 130.255 6.248C130.079 6.10133 129.84 6.028 129.54 6.028C129.261 6.028 129.045 6.07933 128.891 6.182C128.744 6.28467 128.671 6.42767 128.671 6.611C128.671 6.81633 128.773 6.974 128.979 7.084C129.184 7.18667 129.503 7.293 129.936 7.403C130.376 7.513 130.739 7.62667 131.025 7.744C131.311 7.86133 131.556 8.04467 131.762 8.294C131.974 8.536 132.084 8.85867 132.092 9.262C132.092 9.614 131.993 9.92933 131.795 10.208C131.604 10.4867 131.325 10.7067 130.959 10.868C130.599 11.022 130.178 11.099 129.694 11.099ZM139.021 7.821C139.021 8.041 139.006 8.239 138.977 8.415H134.522C134.558 8.855 134.712 9.19967 134.984 9.449C135.255 9.69833 135.589 9.823 135.985 9.823C136.557 9.823 136.964 9.57733 137.206 9.086H138.867C138.691 9.67267 138.353 10.1567 137.855 10.538C137.356 10.912 136.744 11.099 136.018 11.099C135.431 11.099 134.903 10.9707 134.434 10.714C133.972 10.45 133.609 10.0797 133.345 9.603C133.088 9.12633 132.96 8.57633 132.96 7.953C132.96 7.32233 133.088 6.76867 133.345 6.292C133.601 5.81533 133.961 5.44867 134.423 5.192C134.885 4.93533 135.416 4.807 136.018 4.807C136.597 4.807 137.114 4.93167 137.569 5.181C138.031 5.43033 138.386 5.786 138.636 6.248C138.892 6.70267 139.021 7.227 139.021 7.821ZM137.426 7.381C137.418 6.985 137.275 6.66967 136.997 6.435C136.718 6.193 136.377 6.072 135.974 6.072C135.592 6.072 135.27 6.18933 135.006 6.424C134.749 6.65133 134.591 6.97033 134.533 7.381H137.426ZM139.749 7.931C139.749 7.315 139.87 6.76867 140.112 6.292C140.361 5.81533 140.698 5.44867 141.124 5.192C141.549 4.93533 142.022 4.807 142.543 4.807C142.939 4.807 143.316 4.895 143.676 5.071C144.035 5.23967 144.321 5.467 144.534 5.753V2.86H146.096V11H144.534V10.098C144.343 10.3987 144.075 10.6407 143.731 10.824C143.386 11.0073 142.986 11.099 142.532 11.099C142.018 11.099 141.549 10.967 141.124 10.703C140.698 10.439 140.361 10.0687 140.112 9.592C139.87 9.108 139.749 8.55433 139.749 7.931ZM144.545 7.953C144.545 7.579 144.471 7.26 144.325 6.996C144.178 6.72467 143.98 6.51933 143.731 6.38C143.481 6.23333 143.214 6.16 142.928 6.16C142.642 6.16 142.378 6.22967 142.136 6.369C141.894 6.50833 141.696 6.71367 141.542 6.985C141.395 7.249 141.322 7.56433 141.322 7.931C141.322 8.29767 141.395 8.62033 141.542 8.899C141.696 9.17033 141.894 9.37933 142.136 9.526C142.385 9.67267 142.649 9.746 142.928 9.746C143.214 9.746 143.481 9.67633 143.731 9.537C143.98 9.39033 144.178 9.185 144.325 8.921C144.471 8.64967 144.545 8.327 144.545 7.953ZM152.927 11.099C152.34 11.099 151.812 10.9707 151.343 10.714C150.874 10.45 150.503 10.0797 150.232 9.603C149.968 9.12633 149.836 8.57633 149.836 7.953C149.836 7.32967 149.972 6.77967 150.243 6.303C150.522 5.82633 150.899 5.45967 151.376 5.203C151.853 4.939 152.384 4.807 152.971 4.807C153.558 4.807 154.089 4.939 154.566 5.203C155.043 5.45967 155.417 5.82633 155.688 6.303C155.967 6.77967 156.106 7.32967 156.106 7.953C156.106 8.57633 155.963 9.12633 155.677 9.603C155.398 10.0797 155.017 10.45 154.533 10.714C154.056 10.9707 153.521 11.099 152.927 11.099ZM152.927 9.757C153.206 9.757 153.466 9.691 153.708 9.559C153.957 9.41967 154.155 9.21433 154.302 8.943C154.449 8.67167 154.522 8.34167 154.522 7.953C154.522 7.37367 154.368 6.93 154.06 6.622C153.759 6.30667 153.389 6.149 152.949 6.149C152.509 6.149 152.139 6.30667 151.838 6.622C151.545 6.93 151.398 7.37367 151.398 7.953C151.398 8.53233 151.541 8.97967 151.827 9.295C152.12 9.603 152.487 9.757 152.927 9.757ZM160.613 4.818C161.339 4.818 161.925 5.049 162.373 5.511C162.82 5.96567 163.044 6.60367 163.044 7.425V11H161.504V7.634C161.504 7.15 161.383 6.77967 161.141 6.523C160.899 6.259 160.569 6.127 160.151 6.127C159.725 6.127 159.388 6.259 159.139 6.523C158.897 6.77967 158.776 7.15 158.776 7.634V11H157.236V4.906H158.776V5.665C158.981 5.401 159.241 5.19567 159.557 5.049C159.879 4.895 160.231 4.818 160.613 4.818Z" fill="#1E212A"/>
</svg>
