<svg width="16" height="16" viewBox="0 0 16 16" fill="none" xmlns="http://www.w3.org/2000/svg">
<path d="M8.78228 8.00019L12.105 4.6773C12.3206 4.46168 12.3206 4.11184 12.105 3.89541C11.8894 3.67899 11.5395 3.6798 11.3231 3.89541L8.00019 7.21811L4.6773 3.89541C4.46168 3.6798 4.11184 3.6798 3.89541 3.89541C3.67899 4.11103 3.6798 4.46087 3.89541 4.6773L7.21811 8.00019L3.89541 11.3231C3.6798 11.5387 3.6798 11.8885 3.89541 12.105C4.00312 12.2129 4.14504 12.2667 4.28595 12.2667C4.42767 12.2667 4.56878 12.2129 4.67649 12.105L8.00019 8.78228L11.3231 12.105C11.4308 12.2129 11.5727 12.2667 11.7136 12.2667C11.8545 12.2667 11.9965 12.2129 12.1042 12.105C12.3198 11.8894 12.3198 11.5395 12.1042 11.3231L8.78228 8.00019Z" fill="white"/>
<path d="M8.78228 8.00019L12.105 4.6773C12.3206 4.46168 12.3206 4.11184 12.105 3.89541C11.8894 3.67899 11.5395 3.6798 11.3231 3.89541L8.00019 7.21811L4.6773 3.89541C4.46168 3.6798 4.11184 3.6798 3.89541 3.89541C3.67899 4.11103 3.6798 4.46087 3.89541 4.6773L7.21811 8.00019L3.89541 11.3231C3.6798 11.5387 3.6798 11.8885 3.89541 12.105C4.00312 12.2129 4.14504 12.2667 4.28595 12.2667C4.42767 12.2667 4.56878 12.2129 4.67649 12.105L8.00019 8.78228L11.3231 12.105C11.4308 12.2129 11.5727 12.2667 11.7136 12.2667C11.8545 12.2667 11.9965 12.2129 12.1042 12.105C12.3198 11.8894 12.3198 11.5395 12.1042 11.3231L8.78228 8.00019Z" fill="#00A0EC" fill-opacity="0.7"/>
</svg>
