<svg width="103" height="15" viewBox="0 0 103 15" fill="none" xmlns="http://www.w3.org/2000/svg">
<rect width="103" height="15" fill="white"/>
<path d="M11.5 3.322V4.565H8.299V6.534H10.752V7.755H8.299V11H6.759V3.322H11.5ZM13.373 4.18C13.1017 4.18 12.8743 4.09567 12.691 3.927C12.515 3.751 12.427 3.53467 12.427 3.278C12.427 3.02133 12.515 2.80867 12.691 2.64C12.8743 2.464 13.1017 2.376 13.373 2.376C13.6443 2.376 13.868 2.464 14.044 2.64C14.2273 2.80867 14.319 3.02133 14.319 3.278C14.319 3.53467 14.2273 3.751 14.044 3.927C13.868 4.09567 13.6443 4.18 13.373 4.18ZM14.132 4.906V11H12.592V4.906H14.132ZM17.9855 11.099C17.4869 11.099 17.0395 11.011 16.6435 10.835C16.2475 10.6517 15.9322 10.406 15.6975 10.098C15.4702 9.79 15.3455 9.449 15.3235 9.075H16.8745C16.9039 9.30967 17.0175 9.504 17.2155 9.658C17.4209 9.812 17.6739 9.889 17.9745 9.889C18.2679 9.889 18.4952 9.83033 18.6565 9.713C18.8252 9.59567 18.9095 9.44533 18.9095 9.262C18.9095 9.064 18.8069 8.91733 18.6015 8.822C18.4035 8.71933 18.0845 8.60933 17.6445 8.492C17.1899 8.382 16.8159 8.26833 16.5225 8.151C16.2365 8.03367 15.9872 7.854 15.7745 7.612C15.5692 7.37 15.4665 7.04367 15.4665 6.633C15.4665 6.29567 15.5619 5.98767 15.7525 5.709C15.9505 5.43033 16.2292 5.21033 16.5885 5.049C16.9552 4.88767 17.3842 4.807 17.8755 4.807C18.6015 4.807 19.1809 4.99033 19.6135 5.357C20.0462 5.71633 20.2845 6.204 20.3285 6.82H18.8545C18.8325 6.578 18.7299 6.38733 18.5465 6.248C18.3705 6.10133 18.1322 6.028 17.8315 6.028C17.5529 6.028 17.3365 6.07933 17.1825 6.182C17.0359 6.28467 16.9625 6.42767 16.9625 6.611C16.9625 6.81633 17.0652 6.974 17.2705 7.084C17.4759 7.18667 17.7949 7.293 18.2275 7.403C18.6675 7.513 19.0305 7.62667 19.3165 7.744C19.6025 7.86133 19.8482 8.04467 20.0535 8.294C20.2662 8.536 20.3762 8.85867 20.3835 9.262C20.3835 9.614 20.2845 9.92933 20.0865 10.208C19.8959 10.4867 19.6172 10.7067 19.2505 10.868C18.8912 11.022 18.4695 11.099 17.9855 11.099ZM21.2517 7.953C21.2517 7.32233 21.38 6.77233 21.6367 6.303C21.8933 5.82633 22.249 5.45967 22.7037 5.203C23.1583 4.939 23.679 4.807 24.2657 4.807C25.021 4.807 25.6443 4.99767 26.1357 5.379C26.6343 5.753 26.968 6.281 27.1367 6.963H25.4757C25.3877 6.699 25.2373 6.49367 25.0247 6.347C24.8193 6.193 24.5627 6.116 24.2547 6.116C23.8147 6.116 23.4663 6.27733 23.2097 6.6C22.953 6.91533 22.8247 7.36633 22.8247 7.953C22.8247 8.53233 22.953 8.98333 23.2097 9.306C23.4663 9.62133 23.8147 9.779 24.2547 9.779C24.878 9.779 25.285 9.50033 25.4757 8.943H27.1367C26.968 9.603 26.6343 10.1273 26.1357 10.516C25.637 10.9047 25.0137 11.099 24.2657 11.099C23.679 11.099 23.1583 10.9707 22.7037 10.714C22.249 10.45 21.8933 10.0833 21.6367 9.614C21.38 9.13733 21.2517 8.58367 21.2517 7.953ZM27.8689 7.931C27.8689 7.315 27.9899 6.76867 28.2319 6.292C28.4812 5.81533 28.8149 5.44867 29.2329 5.192C29.6582 4.93533 30.1312 4.807 30.6519 4.807C31.1065 4.807 31.5025 4.89867 31.8399 5.082C32.1845 5.26533 32.4595 5.49633 32.6649 5.775V4.906H34.2159V11H32.6649V10.109C32.4669 10.395 32.1919 10.6333 31.8399 10.824C31.4952 11.0073 31.0955 11.099 30.6409 11.099C30.1275 11.099 29.6582 10.967 29.2329 10.703C28.8149 10.439 28.4812 10.0687 28.2319 9.592C27.9899 9.108 27.8689 8.55433 27.8689 7.931ZM32.6649 7.953C32.6649 7.579 32.5915 7.26 32.4449 6.996C32.2982 6.72467 32.1002 6.51933 31.8509 6.38C31.6015 6.23333 31.3339 6.16 31.0479 6.16C30.7619 6.16 30.4979 6.22967 30.2559 6.369C30.0139 6.50833 29.8159 6.71367 29.6619 6.985C29.5152 7.249 29.4419 7.56433 29.4419 7.931C29.4419 8.29767 29.5152 8.62033 29.6619 8.899C29.8159 9.17033 30.0139 9.37933 30.2559 9.526C30.5052 9.67267 30.7692 9.746 31.0479 9.746C31.3339 9.746 31.6015 9.67633 31.8509 9.537C32.1002 9.39033 32.2982 9.185 32.4449 8.921C32.5915 8.64967 32.6649 8.327 32.6649 7.953ZM37.2599 2.86V11H35.7199V2.86H37.2599ZM47.5076 3.322L44.9116 8.327V11H43.3716V8.327L40.7646 3.322H42.5026L44.1526 6.831L45.7916 3.322H47.5076ZM54.0607 7.821C54.0607 8.041 54.0461 8.239 54.0167 8.415H49.5617C49.5984 8.855 49.7524 9.19967 50.0237 9.449C50.2951 9.69833 50.6287 9.823 51.0247 9.823C51.5967 9.823 52.0037 9.57733 52.2457 9.086H53.9067C53.7307 9.67267 53.3934 10.1567 52.8947 10.538C52.3961 10.912 51.7837 11.099 51.0577 11.099C50.4711 11.099 49.9431 10.9707 49.4737 10.714C49.0117 10.45 48.6487 10.0797 48.3847 9.603C48.1281 9.12633 47.9997 8.57633 47.9997 7.953C47.9997 7.32233 48.1281 6.76867 48.3847 6.292C48.6414 5.81533 49.0007 5.44867 49.4627 5.192C49.9247 4.93533 50.4564 4.807 51.0577 4.807C51.6371 4.807 52.1541 4.93167 52.6087 5.181C53.0707 5.43033 53.4264 5.786 53.6757 6.248C53.9324 6.70267 54.0607 7.227 54.0607 7.821ZM52.4657 7.381C52.4584 6.985 52.3154 6.66967 52.0367 6.435C51.7581 6.193 51.4171 6.072 51.0137 6.072C50.6324 6.072 50.3097 6.18933 50.0457 6.424C49.7891 6.65133 49.6314 6.97033 49.5727 7.381H52.4657ZM54.7888 7.931C54.7888 7.315 54.9098 6.76867 55.1518 6.292C55.4011 5.81533 55.7348 5.44867 56.1528 5.192C56.5781 4.93533 57.0511 4.807 57.5718 4.807C58.0264 4.807 58.4224 4.89867 58.7598 5.082C59.1044 5.26533 59.3794 5.49633 59.5848 5.775V4.906H61.1358V11H59.5848V10.109C59.3868 10.395 59.1118 10.6333 58.7598 10.824C58.4151 11.0073 58.0154 11.099 57.5608 11.099C57.0474 11.099 56.5781 10.967 56.1528 10.703C55.7348 10.439 55.4011 10.0687 55.1518 9.592C54.9098 9.108 54.7888 8.55433 54.7888 7.931ZM59.5848 7.953C59.5848 7.579 59.5114 7.26 59.3648 6.996C59.2181 6.72467 59.0201 6.51933 58.7708 6.38C58.5214 6.23333 58.2538 6.16 57.9678 6.16C57.6818 6.16 57.4178 6.22967 57.1758 6.369C56.9338 6.50833 56.7358 6.71367 56.5818 6.985C56.4351 7.249 56.3618 7.56433 56.3618 7.931C56.3618 8.29767 56.4351 8.62033 56.5818 8.899C56.7358 9.17033 56.9338 9.37933 57.1758 9.526C57.4251 9.67267 57.6891 9.746 57.9678 9.746C58.2538 9.746 58.5214 9.67633 58.7708 9.537C59.0201 9.39033 59.2181 9.185 59.3648 8.921C59.5114 8.64967 59.5848 8.327 59.5848 7.953ZM64.1799 5.852C64.3779 5.52933 64.6345 5.27633 64.9499 5.093C65.2725 4.90967 65.6392 4.818 66.0499 4.818V6.435H65.6429C65.1589 6.435 64.7922 6.54867 64.5429 6.776C64.3009 7.00333 64.1799 7.39933 64.1799 7.964V11H62.6399V4.906H64.1799V5.852ZM72.3592 11.077C71.8239 11.077 71.3399 10.9853 70.9072 10.802C70.4819 10.6187 70.1446 10.3547 69.8952 10.01C69.6459 9.66533 69.5176 9.25833 69.5102 8.789H71.1602C71.1822 9.10433 71.2922 9.35367 71.4902 9.537C71.6956 9.72033 71.9742 9.812 72.3262 9.812C72.6856 9.812 72.9679 9.72767 73.1732 9.559C73.3786 9.383 73.4812 9.15567 73.4812 8.877C73.4812 8.64967 73.4116 8.46267 73.2722 8.316C73.1329 8.16933 72.9569 8.05567 72.7442 7.975C72.5389 7.887 72.2529 7.79167 71.8862 7.689C71.3876 7.54233 70.9806 7.39933 70.6652 7.26C70.3572 7.11333 70.0896 6.897 69.8622 6.611C69.6422 6.31767 69.5322 5.929 69.5322 5.445C69.5322 4.99033 69.6459 4.59433 69.8732 4.257C70.1006 3.91967 70.4196 3.663 70.8302 3.487C71.2409 3.30367 71.7102 3.212 72.2382 3.212C73.0302 3.212 73.6719 3.40633 74.1632 3.795C74.6619 4.17633 74.9369 4.71167 74.9882 5.401H73.2942C73.2796 5.137 73.1659 4.92067 72.9532 4.752C72.7479 4.576 72.4729 4.488 72.1282 4.488C71.8276 4.488 71.5856 4.565 71.4022 4.719C71.2262 4.873 71.1382 5.09667 71.1382 5.39C71.1382 5.59533 71.2042 5.76767 71.3362 5.907C71.4756 6.039 71.6442 6.149 71.8422 6.237C72.0476 6.31767 72.3336 6.413 72.7002 6.523C73.1989 6.66967 73.6059 6.81633 73.9212 6.963C74.2366 7.10967 74.5079 7.32967 74.7352 7.623C74.9626 7.91633 75.0762 8.30133 75.0762 8.778C75.0762 9.18867 74.9699 9.57 74.7572 9.922C74.5446 10.274 74.2329 10.5563 73.8222 10.769C73.4116 10.9743 72.9239 11.077 72.3592 11.077ZM78.2043 6.171V9.119C78.2043 9.32433 78.252 9.47467 78.3473 9.57C78.45 9.658 78.6187 9.702 78.8533 9.702H79.5683V11H78.6003C77.3023 11 76.6533 10.3693 76.6533 9.108V6.171H75.9273V4.906H76.6533V3.399H78.2043V4.906H79.5683V6.171H78.2043ZM80.28 7.931C80.28 7.315 80.401 6.76867 80.643 6.292C80.8923 5.81533 81.226 5.44867 81.644 5.192C82.0693 4.93533 82.5423 4.807 83.063 4.807C83.5177 4.807 83.9137 4.89867 84.251 5.082C84.5957 5.26533 84.8707 5.49633 85.076 5.775V4.906H86.627V11H85.076V10.109C84.878 10.395 84.603 10.6333 84.251 10.824C83.9063 11.0073 83.5067 11.099 83.052 11.099C82.5387 11.099 82.0693 10.967 81.644 10.703C81.226 10.439 80.8923 10.0687 80.643 9.592C80.401 9.108 80.28 8.55433 80.28 7.931ZM85.076 7.953C85.076 7.579 85.0027 7.26 84.856 6.996C84.7093 6.72467 84.5113 6.51933 84.262 6.38C84.0127 6.23333 83.745 6.16 83.459 6.16C83.173 6.16 82.909 6.22967 82.667 6.369C82.425 6.50833 82.227 6.71367 82.073 6.985C81.9263 7.249 81.853 7.56433 81.853 7.931C81.853 8.29767 81.9263 8.62033 82.073 8.899C82.227 9.17033 82.425 9.37933 82.667 9.526C82.9163 9.67267 83.1803 9.746 83.459 9.746C83.745 9.746 84.0127 9.67633 84.262 9.537C84.5113 9.39033 84.7093 9.185 84.856 8.921C85.0027 8.64967 85.076 8.327 85.076 7.953ZM89.6711 5.852C89.8691 5.52933 90.1257 5.27633 90.4411 5.093C90.7637 4.90967 91.1304 4.818 91.5411 4.818V6.435H91.1341C90.6501 6.435 90.2834 6.54867 90.0341 6.776C89.7921 7.00333 89.6711 7.39933 89.6711 7.964V11H88.1311V4.906H89.6711V5.852ZM94.3713 6.171V9.119C94.3713 9.32433 94.419 9.47467 94.5143 9.57C94.617 9.658 94.7857 9.702 95.0203 9.702H95.7353V11H94.7673C93.4693 11 92.8203 10.3693 92.8203 9.108V6.171H92.0943V4.906H92.8203V3.399H94.3713V4.906H95.7353V6.171H94.3713Z" fill="#1E212A"/>
</svg>
