<svg width="52" height="15" viewBox="0 0 52 15" fill="none" xmlns="http://www.w3.org/2000/svg">
<rect width="52" height="15" fill="white"/>
<path d="M13.326 11H11.786L8.299 5.731V11H6.759V3.311H8.299L11.786 8.591V3.311H13.326V11ZM14.4519 7.931C14.4519 7.315 14.5729 6.76867 14.8149 6.292C15.0642 5.81533 15.3979 5.44867 15.8159 5.192C16.2412 4.93533 16.7142 4.807 17.2349 4.807C17.6895 4.807 18.0855 4.89867 18.4229 5.082C18.7675 5.26533 19.0425 5.49633 19.2479 5.775V4.906H20.7989V11H19.2479V10.109C19.0499 10.395 18.7749 10.6333 18.4229 10.824C18.0782 11.0073 17.6785 11.099 17.2239 11.099C16.7105 11.099 16.2412 10.967 15.8159 10.703C15.3979 10.439 15.0642 10.0687 14.8149 9.592C14.5729 9.108 14.4519 8.55433 14.4519 7.931ZM19.2479 7.953C19.2479 7.579 19.1745 7.26 19.0279 6.996C18.8812 6.72467 18.6832 6.51933 18.4339 6.38C18.1845 6.23333 17.9169 6.16 17.6309 6.16C17.3449 6.16 17.0809 6.22967 16.8389 6.369C16.5969 6.50833 16.3989 6.71367 16.2449 6.985C16.0982 7.249 16.0249 7.56433 16.0249 7.931C16.0249 8.29767 16.0982 8.62033 16.2449 8.899C16.3989 9.17033 16.5969 9.37933 16.8389 9.526C17.0882 9.67267 17.3522 9.746 17.6309 9.746C17.9169 9.746 18.1845 9.67633 18.4339 9.537C18.6832 9.39033 18.8812 9.185 19.0279 8.921C19.1745 8.64967 19.2479 8.327 19.2479 7.953ZM29.8709 4.818C30.6189 4.818 31.2203 5.049 31.6749 5.511C32.1369 5.96567 32.3679 6.60367 32.3679 7.425V11H30.8279V7.634C30.8279 7.15733 30.7069 6.79433 30.4649 6.545C30.2229 6.28833 29.8929 6.16 29.4749 6.16C29.0569 6.16 28.7233 6.28833 28.4739 6.545C28.2319 6.79433 28.1109 7.15733 28.1109 7.634V11H26.5709V7.634C26.5709 7.15733 26.4499 6.79433 26.2079 6.545C25.9659 6.28833 25.6359 6.16 25.2179 6.16C24.7926 6.16 24.4553 6.28833 24.2059 6.545C23.9639 6.79433 23.8429 7.15733 23.8429 7.634V11H22.3029V4.906H23.8429V5.643C24.0409 5.38633 24.2939 5.18467 24.6019 5.038C24.9173 4.89133 25.2619 4.818 25.6359 4.818C26.1126 4.818 26.5379 4.92067 26.9119 5.126C27.2859 5.324 27.5756 5.61 27.7809 5.984C27.9789 5.632 28.2649 5.34967 28.6389 5.137C29.0203 4.92433 29.4309 4.818 29.8709 4.818ZM39.4943 7.821C39.4943 8.041 39.4796 8.239 39.4503 8.415H34.9953C35.032 8.855 35.186 9.19967 35.4573 9.449C35.7286 9.69833 36.0623 9.823 36.4583 9.823C37.0303 9.823 37.4373 9.57733 37.6793 9.086H39.3403C39.1643 9.67267 38.827 10.1567 38.3283 10.538C37.8296 10.912 37.2173 11.099 36.4913 11.099C35.9046 11.099 35.3766 10.9707 34.9073 10.714C34.4453 10.45 34.0823 10.0797 33.8183 9.603C33.5616 9.12633 33.4333 8.57633 33.4333 7.953C33.4333 7.32233 33.5616 6.76867 33.8183 6.292C34.075 5.81533 34.4343 5.44867 34.8963 5.192C35.3583 4.93533 35.89 4.807 36.4913 4.807C37.0706 4.807 37.5876 4.93167 38.0423 5.181C38.5043 5.43033 38.86 5.786 39.1093 6.248C39.366 6.70267 39.4943 7.227 39.4943 7.821ZM37.8993 7.381C37.892 6.985 37.749 6.66967 37.4703 6.435C37.1916 6.193 36.8506 6.072 36.4473 6.072C36.066 6.072 35.7433 6.18933 35.4793 6.424C35.2226 6.65133 35.065 6.97033 35.0063 7.381H37.8993Z" fill="#1E212A"/>
<path d="M44.2484 3.454L44.7984 4.444L43.3684 4.961L44.7984 5.478L44.2264 6.501L43.0384 5.522L43.2914 7.04H42.1474L42.3894 5.522L41.2124 6.523L40.6074 5.467L42.0374 4.95L40.6184 4.455L41.1794 3.443L42.4004 4.411L42.1474 2.882H43.3024L43.0384 4.411L44.2484 3.454Z" fill="#F24445"/>
</svg>
