<svg width="76" height="15" viewBox="0 0 76 15" fill="none" xmlns="http://www.w3.org/2000/svg">
<rect width="76" height="15" fill="white"/>
<path d="M11.984 3.322V4.565H9.938V11H8.398V4.565H6.352V3.322H11.984ZM13.8886 4.18C13.6173 4.18 13.39 4.09567 13.2066 3.927C13.0306 3.751 12.9426 3.53467 12.9426 3.278C12.9426 3.02133 13.0306 2.80867 13.2066 2.64C13.39 2.464 13.6173 2.376 13.8886 2.376C14.16 2.376 14.3836 2.464 14.5596 2.64C14.743 2.80867 14.8346 3.02133 14.8346 3.278C14.8346 3.53467 14.743 3.751 14.5596 3.927C14.3836 4.09567 14.16 4.18 13.8886 4.18ZM14.6476 4.906V11H13.1076V4.906H14.6476ZM23.7372 4.818C24.4852 4.818 25.0865 5.049 25.5412 5.511C26.0032 5.96567 26.2342 6.60367 26.2342 7.425V11H24.6942V7.634C24.6942 7.15733 24.5732 6.79433 24.3312 6.545C24.0892 6.28833 23.7592 6.16 23.3412 6.16C22.9232 6.16 22.5895 6.28833 22.3402 6.545C22.0982 6.79433 21.9772 7.15733 21.9772 7.634V11H20.4372V7.634C20.4372 7.15733 20.3162 6.79433 20.0742 6.545C19.8322 6.28833 19.5022 6.16 19.0842 6.16C18.6588 6.16 18.3215 6.28833 18.0722 6.545C17.8302 6.79433 17.7092 7.15733 17.7092 7.634V11H16.1692V4.906H17.7092V5.643C17.9072 5.38633 18.1602 5.18467 18.4682 5.038C18.7835 4.89133 19.1282 4.818 19.5022 4.818C19.9788 4.818 20.4042 4.92067 20.7782 5.126C21.1522 5.324 21.4418 5.61 21.6472 5.984C21.8452 5.632 22.1312 5.34967 22.5052 5.137C22.8865 4.92433 23.2972 4.818 23.7372 4.818ZM33.3605 7.821C33.3605 8.041 33.3459 8.239 33.3165 8.415H28.8615C28.8982 8.855 29.0522 9.19967 29.3235 9.449C29.5949 9.69833 29.9285 9.823 30.3245 9.823C30.8965 9.823 31.3035 9.57733 31.5455 9.086H33.2065C33.0305 9.67267 32.6932 10.1567 32.1945 10.538C31.6959 10.912 31.0835 11.099 30.3575 11.099C29.7709 11.099 29.2429 10.9707 28.7735 10.714C28.3115 10.45 27.9485 10.0797 27.6845 9.603C27.4279 9.12633 27.2995 8.57633 27.2995 7.953C27.2995 7.32233 27.4279 6.76867 27.6845 6.292C27.9412 5.81533 28.3005 5.44867 28.7625 5.192C29.2245 4.93533 29.7562 4.807 30.3575 4.807C30.9369 4.807 31.4539 4.93167 31.9085 5.181C32.3705 5.43033 32.7262 5.786 32.9755 6.248C33.2322 6.70267 33.3605 7.227 33.3605 7.821ZM31.7655 7.381C31.7582 6.985 31.6152 6.66967 31.3365 6.435C31.0579 6.193 30.7169 6.072 30.3135 6.072C29.9322 6.072 29.6095 6.18933 29.3455 6.424C29.0889 6.65133 28.9312 6.97033 28.8725 7.381H31.7655ZM38.6787 9.702H42.1327V11H36.8967V9.812L40.3287 4.62H36.8967V3.322H42.1327V4.51L38.6787 9.702ZM46.1496 11.099C45.5629 11.099 45.0349 10.9707 44.5656 10.714C44.0962 10.45 43.7259 10.0797 43.4546 9.603C43.1906 9.12633 43.0586 8.57633 43.0586 7.953C43.0586 7.32967 43.1942 6.77967 43.4656 6.303C43.7442 5.82633 44.1219 5.45967 44.5986 5.203C45.0752 4.939 45.6069 4.807 46.1936 4.807C46.7802 4.807 47.3119 4.939 47.7886 5.203C48.2652 5.45967 48.6392 5.82633 48.9106 6.303C49.1892 6.77967 49.3286 7.32967 49.3286 7.953C49.3286 8.57633 49.1856 9.12633 48.8996 9.603C48.6209 10.0797 48.2396 10.45 47.7556 10.714C47.2789 10.9707 46.7436 11.099 46.1496 11.099ZM46.1496 9.757C46.4282 9.757 46.6886 9.691 46.9306 9.559C47.1799 9.41967 47.3779 9.21433 47.5246 8.943C47.6712 8.67167 47.7446 8.34167 47.7446 7.953C47.7446 7.37367 47.5906 6.93 47.2826 6.622C46.9819 6.30667 46.6116 6.149 46.1716 6.149C45.7316 6.149 45.3612 6.30667 45.0606 6.622C44.7672 6.93 44.6206 7.37367 44.6206 7.953C44.6206 8.53233 44.7636 8.97967 45.0496 9.295C45.3429 9.603 45.7096 9.757 46.1496 9.757ZM53.8352 4.818C54.5612 4.818 55.1479 5.049 55.5952 5.511C56.0426 5.96567 56.2662 6.60367 56.2662 7.425V11H54.7262V7.634C54.7262 7.15 54.6052 6.77967 54.3632 6.523C54.1212 6.259 53.7912 6.127 53.3732 6.127C52.9479 6.127 52.6106 6.259 52.3612 6.523C52.1192 6.77967 51.9982 7.15 51.9982 7.634V11H50.4582V4.906H51.9982V5.665C52.2036 5.401 52.4639 5.19567 52.7792 5.049C53.1019 4.895 53.4539 4.818 53.8352 4.818ZM63.3957 7.821C63.3957 8.041 63.381 8.239 63.3517 8.415H58.8967C58.9333 8.855 59.0873 9.19967 59.3587 9.449C59.63 9.69833 59.9637 9.823 60.3597 9.823C60.9317 9.823 61.3387 9.57733 61.5807 9.086H63.2417C63.0657 9.67267 62.7283 10.1567 62.2297 10.538C61.731 10.912 61.1187 11.099 60.3927 11.099C59.806 11.099 59.278 10.9707 58.8087 10.714C58.3467 10.45 57.9837 10.0797 57.7197 9.603C57.463 9.12633 57.3347 8.57633 57.3347 7.953C57.3347 7.32233 57.463 6.76867 57.7197 6.292C57.9763 5.81533 58.3357 5.44867 58.7977 5.192C59.2597 4.93533 59.7913 4.807 60.3927 4.807C60.972 4.807 61.489 4.93167 61.9437 5.181C62.4057 5.43033 62.7613 5.786 63.0107 6.248C63.2673 6.70267 63.3957 7.227 63.3957 7.821ZM61.8007 7.381C61.7933 6.985 61.6503 6.66967 61.3717 6.435C61.093 6.193 60.752 6.072 60.3487 6.072C59.9673 6.072 59.6447 6.18933 59.3807 6.424C59.124 6.65133 58.9663 6.97033 58.9077 7.381H61.8007Z" fill="#1E212A"/>
<path d="M68.1497 3.454L68.6997 4.444L67.2697 4.961L68.6997 5.478L68.1277 6.501L66.9397 5.522L67.1927 7.04H66.0487L66.2907 5.522L65.1137 6.523L64.5087 5.467L65.9387 4.95L64.5197 4.455L65.0807 3.443L66.3017 4.411L66.0487 2.882H67.2037L66.9397 4.411L68.1497 3.454Z" fill="#F24445"/>
</svg>
