<svg width="43" height="15" viewBox="0 0 43 15" fill="none" xmlns="http://www.w3.org/2000/svg">
<rect width="43" height="15" fill="white"/>
<path d="M8.277 3.322V8.074C8.277 8.59467 8.41267 8.99433 8.684 9.273C8.95533 9.54433 9.33667 9.68 9.828 9.68C10.3267 9.68 10.7117 9.54433 10.983 9.273C11.2543 8.99433 11.39 8.59467 11.39 8.074V3.322H12.941V8.063C12.941 8.71567 12.798 9.26933 12.512 9.724C12.2333 10.1713 11.8557 10.5087 11.379 10.736C10.9097 10.9633 10.3853 11.077 9.806 11.077C9.234 11.077 8.71333 10.9633 8.244 10.736C7.782 10.5087 7.41533 10.1713 7.144 9.724C6.87267 9.26933 6.737 8.71567 6.737 8.063V3.322H8.277ZM16.7609 11.099C16.2623 11.099 15.8149 11.011 15.4189 10.835C15.0229 10.6517 14.7076 10.406 14.4729 10.098C14.2456 9.79 14.1209 9.449 14.0989 9.075H15.6499C15.6793 9.30967 15.7929 9.504 15.9909 9.658C16.1963 9.812 16.4493 9.889 16.7499 9.889C17.0433 9.889 17.2706 9.83033 17.4319 9.713C17.6006 9.59567 17.6849 9.44533 17.6849 9.262C17.6849 9.064 17.5823 8.91733 17.3769 8.822C17.1789 8.71933 16.8599 8.60933 16.4199 8.492C15.9653 8.382 15.5913 8.26833 15.2979 8.151C15.0119 8.03367 14.7626 7.854 14.5499 7.612C14.3446 7.37 14.2419 7.04367 14.2419 6.633C14.2419 6.29567 14.3373 5.98767 14.5279 5.709C14.7259 5.43033 15.0046 5.21033 15.3639 5.049C15.7306 4.88767 16.1596 4.807 16.6509 4.807C17.3769 4.807 17.9563 4.99033 18.3889 5.357C18.8216 5.71633 19.0599 6.204 19.1039 6.82H17.6299C17.6079 6.578 17.5053 6.38733 17.3219 6.248C17.1459 6.10133 16.9076 6.028 16.6069 6.028C16.3283 6.028 16.1119 6.07933 15.9579 6.182C15.8113 6.28467 15.7379 6.42767 15.7379 6.611C15.7379 6.81633 15.8406 6.974 16.0459 7.084C16.2513 7.18667 16.5703 7.293 17.0029 7.403C17.4429 7.513 17.8059 7.62667 18.0919 7.744C18.3779 7.86133 18.6236 8.04467 18.8289 8.294C19.0416 8.536 19.1516 8.85867 19.1589 9.262C19.1589 9.614 19.0599 9.92933 18.8619 10.208C18.6713 10.4867 18.3926 10.7067 18.0259 10.868C17.6666 11.022 17.2449 11.099 16.7609 11.099ZM26.0881 7.821C26.0881 8.041 26.0734 8.239 26.0441 8.415H21.5891C21.6257 8.855 21.7797 9.19967 22.0511 9.449C22.3224 9.69833 22.6561 9.823 23.0521 9.823C23.6241 9.823 24.0311 9.57733 24.2731 9.086H25.9341C25.7581 9.67267 25.4207 10.1567 24.9221 10.538C24.4234 10.912 23.8111 11.099 23.0851 11.099C22.4984 11.099 21.9704 10.9707 21.5011 10.714C21.0391 10.45 20.6761 10.0797 20.4121 9.603C20.1554 9.12633 20.0271 8.57633 20.0271 7.953C20.0271 7.32233 20.1554 6.76867 20.4121 6.292C20.6687 5.81533 21.0281 5.44867 21.4901 5.192C21.9521 4.93533 22.4837 4.807 23.0851 4.807C23.6644 4.807 24.1814 4.93167 24.6361 5.181C25.0981 5.43033 25.4537 5.786 25.7031 6.248C25.9597 6.70267 26.0881 7.227 26.0881 7.821ZM24.4931 7.381C24.4857 6.985 24.3427 6.66967 24.0641 6.435C23.7854 6.193 23.4444 6.072 23.0411 6.072C22.6597 6.072 22.3371 6.18933 22.0731 6.424C21.8164 6.65133 21.6587 6.97033 21.6001 7.381H24.4931ZM28.7521 5.852C28.9501 5.52933 29.2068 5.27633 29.5221 5.093C29.8448 4.90967 30.2115 4.818 30.6221 4.818V6.435H30.2151C29.7311 6.435 29.3645 6.54867 29.1151 6.776C28.8731 7.00333 28.7521 7.39933 28.7521 7.964V11H27.2121V4.906H28.7521V5.852ZM33.9914 11.099C33.4927 11.099 33.0454 11.011 32.6494 10.835C32.2534 10.6517 31.9381 10.406 31.7034 10.098C31.4761 9.79 31.3514 9.449 31.3294 9.075H32.8804C32.9097 9.30967 33.0234 9.504 33.2214 9.658C33.4267 9.812 33.6797 9.889 33.9804 9.889C34.2737 9.889 34.5011 9.83033 34.6624 9.713C34.8311 9.59567 34.9154 9.44533 34.9154 9.262C34.9154 9.064 34.8127 8.91733 34.6074 8.822C34.4094 8.71933 34.0904 8.60933 33.6504 8.492C33.1957 8.382 32.8217 8.26833 32.5284 8.151C32.2424 8.03367 31.9931 7.854 31.7804 7.612C31.5751 7.37 31.4724 7.04367 31.4724 6.633C31.4724 6.29567 31.5677 5.98767 31.7584 5.709C31.9564 5.43033 32.2351 5.21033 32.5944 5.049C32.9611 4.88767 33.3901 4.807 33.8814 4.807C34.6074 4.807 35.1867 4.99033 35.6194 5.357C36.0521 5.71633 36.2904 6.204 36.3344 6.82H34.8604C34.8384 6.578 34.7357 6.38733 34.5524 6.248C34.3764 6.10133 34.1381 6.028 33.8374 6.028C33.5587 6.028 33.3424 6.07933 33.1884 6.182C33.0417 6.28467 32.9684 6.42767 32.9684 6.611C32.9684 6.81633 33.0711 6.974 33.2764 7.084C33.4817 7.18667 33.8007 7.293 34.2334 7.403C34.6734 7.513 35.0364 7.62667 35.3224 7.744C35.6084 7.86133 35.8541 8.04467 36.0594 8.294C36.2721 8.536 36.3821 8.85867 36.3894 9.262C36.3894 9.614 36.2904 9.92933 36.0924 10.208C35.9017 10.4867 35.6231 10.7067 35.2564 10.868C34.8971 11.022 34.4754 11.099 33.9914 11.099Z" fill="#1E212A"/>
</svg>
