<svg width="96" height="15" viewBox="0 0 96 15" fill="none" xmlns="http://www.w3.org/2000/svg">
<rect width="96" height="15" fill="white"/>
<path d="M17.022 3.322L14.877 11H13.062L11.621 5.533L10.114 11L8.31 11.011L6.242 3.322H7.892L9.245 9.284L10.807 3.322H12.523L13.997 9.251L15.361 3.322H17.022ZM23.6926 7.821C23.6926 8.041 23.6779 8.239 23.6486 8.415H19.1936C19.2302 8.855 19.3842 9.19967 19.6556 9.449C19.9269 9.69833 20.2606 9.823 20.6566 9.823C21.2286 9.823 21.6356 9.57733 21.8776 9.086H23.5386C23.3626 9.67267 23.0252 10.1567 22.5266 10.538C22.0279 10.912 21.4156 11.099 20.6896 11.099C20.1029 11.099 19.5749 10.9707 19.1056 10.714C18.6436 10.45 18.2806 10.0797 18.0166 9.603C17.7599 9.12633 17.6316 8.57633 17.6316 7.953C17.6316 7.32233 17.7599 6.76867 18.0166 6.292C18.2732 5.81533 18.6326 5.44867 19.0946 5.192C19.5566 4.93533 20.0882 4.807 20.6896 4.807C21.2689 4.807 21.7859 4.93167 22.2406 5.181C22.7026 5.43033 23.0582 5.786 23.3076 6.248C23.5642 6.70267 23.6926 7.227 23.6926 7.821ZM22.0976 7.381C22.0902 6.985 21.9472 6.66967 21.6686 6.435C21.3899 6.193 21.0489 6.072 20.6456 6.072C20.2642 6.072 19.9416 6.18933 19.6776 6.424C19.4209 6.65133 19.2632 6.97033 19.2046 7.381H22.0976ZM30.4816 7.821C30.4816 8.041 30.467 8.239 30.4376 8.415H25.9826C26.0193 8.855 26.1733 9.19967 26.4446 9.449C26.716 9.69833 27.0496 9.823 27.4456 9.823C28.0176 9.823 28.4246 9.57733 28.6666 9.086H30.3276C30.1516 9.67267 29.8143 10.1567 29.3156 10.538C28.817 10.912 28.2046 11.099 27.4786 11.099C26.892 11.099 26.364 10.9707 25.8946 10.714C25.4326 10.45 25.0696 10.0797 24.8056 9.603C24.549 9.12633 24.4206 8.57633 24.4206 7.953C24.4206 7.32233 24.549 6.76867 24.8056 6.292C25.0623 5.81533 25.4216 5.44867 25.8836 5.192C26.3456 4.93533 26.8773 4.807 27.4786 4.807C28.058 4.807 28.575 4.93167 29.0296 5.181C29.4916 5.43033 29.8473 5.786 30.0966 6.248C30.3533 6.70267 30.4816 7.227 30.4816 7.821ZM28.8866 7.381C28.8793 6.985 28.7363 6.66967 28.4576 6.435C28.179 6.193 27.838 6.072 27.4346 6.072C27.0533 6.072 26.7306 6.18933 26.4666 6.424C26.21 6.65133 26.0523 6.97033 25.9936 7.381H28.8866ZM35.2137 11L33.1457 8.404V11H31.6057V2.86H33.1457V7.491L35.1917 4.906H37.1937L34.5097 7.964L37.2157 11H35.2137ZM43.3016 11.077C42.7663 11.077 42.2823 10.9853 41.8496 10.802C41.4243 10.6187 41.0869 10.3547 40.8376 10.01C40.5883 9.66533 40.4599 9.25833 40.4526 8.789H42.1026C42.1246 9.10433 42.2346 9.35367 42.4326 9.537C42.6379 9.72033 42.9166 9.812 43.2686 9.812C43.6279 9.812 43.9103 9.72767 44.1156 9.559C44.3209 9.383 44.4236 9.15567 44.4236 8.877C44.4236 8.64967 44.3539 8.46267 44.2146 8.316C44.0753 8.16933 43.8993 8.05567 43.6866 7.975C43.4813 7.887 43.1953 7.79167 42.8286 7.689C42.3299 7.54233 41.9229 7.39933 41.6076 7.26C41.2996 7.11333 41.0319 6.897 40.8046 6.611C40.5846 6.31767 40.4746 5.929 40.4746 5.445C40.4746 4.99033 40.5883 4.59433 40.8156 4.257C41.0429 3.91967 41.3619 3.663 41.7726 3.487C42.1833 3.30367 42.6526 3.212 43.1806 3.212C43.9726 3.212 44.6143 3.40633 45.1056 3.795C45.6043 4.17633 45.8793 4.71167 45.9306 5.401H44.2366C44.2219 5.137 44.1083 4.92067 43.8956 4.752C43.6903 4.576 43.4153 4.488 43.0706 4.488C42.7699 4.488 42.5279 4.565 42.3446 4.719C42.1686 4.873 42.0806 5.09667 42.0806 5.39C42.0806 5.59533 42.1466 5.76767 42.2786 5.907C42.4179 6.039 42.5866 6.149 42.7846 6.237C42.9899 6.31767 43.2759 6.413 43.6426 6.523C44.1413 6.66967 44.5483 6.81633 44.8636 6.963C45.1789 7.10967 45.4503 7.32967 45.6776 7.623C45.9049 7.91633 46.0186 8.30133 46.0186 8.778C46.0186 9.18867 45.9123 9.57 45.6996 9.922C45.4869 10.274 45.1753 10.5563 44.7646 10.769C44.3539 10.9743 43.8663 11.077 43.3016 11.077ZM49.1467 6.171V9.119C49.1467 9.32433 49.1944 9.47467 49.2897 9.57C49.3924 9.658 49.5611 9.702 49.7957 9.702H50.5107V11H49.5427C48.2447 11 47.5957 10.3693 47.5957 9.108V6.171H46.8697V4.906H47.5957V3.399H49.1467V4.906H50.5107V6.171H49.1467ZM51.2224 7.931C51.2224 7.315 51.3434 6.76867 51.5854 6.292C51.8347 5.81533 52.1684 5.44867 52.5864 5.192C53.0117 4.93533 53.4847 4.807 54.0054 4.807C54.46 4.807 54.856 4.89867 55.1934 5.082C55.538 5.26533 55.813 5.49633 56.0184 5.775V4.906H57.5694V11H56.0184V10.109C55.8204 10.395 55.5454 10.6333 55.1934 10.824C54.8487 11.0073 54.449 11.099 53.9944 11.099C53.481 11.099 53.0117 10.967 52.5864 10.703C52.1684 10.439 51.8347 10.0687 51.5854 9.592C51.3434 9.108 51.2224 8.55433 51.2224 7.931ZM56.0184 7.953C56.0184 7.579 55.945 7.26 55.7984 6.996C55.6517 6.72467 55.4537 6.51933 55.2044 6.38C54.955 6.23333 54.6874 6.16 54.4014 6.16C54.1154 6.16 53.8514 6.22967 53.6094 6.369C53.3674 6.50833 53.1694 6.71367 53.0154 6.985C52.8687 7.249 52.7954 7.56433 52.7954 7.931C52.7954 8.29767 52.8687 8.62033 53.0154 8.899C53.1694 9.17033 53.3674 9.37933 53.6094 9.526C53.8587 9.67267 54.1227 9.746 54.4014 9.746C54.6874 9.746 54.955 9.67633 55.2044 9.537C55.4537 9.39033 55.6517 9.185 55.7984 8.921C55.945 8.64967 56.0184 8.327 56.0184 7.953ZM60.6135 5.852C60.8115 5.52933 61.0681 5.27633 61.3835 5.093C61.7061 4.90967 62.0728 4.818 62.4835 4.818V6.435H62.0765C61.5925 6.435 61.2258 6.54867 60.9765 6.776C60.7345 7.00333 60.6135 7.39933 60.6135 7.964V11H59.0735V4.906H60.6135V5.852ZM65.3137 6.171V9.119C65.3137 9.32433 65.3614 9.47467 65.4567 9.57C65.5594 9.658 65.7281 9.702 65.9627 9.702H66.6777V11H65.7097C64.4117 11 63.7627 10.3693 63.7627 9.108V6.171H63.0367V4.906H63.7627V3.399H65.3137V4.906H66.6777V6.171H65.3137ZM70.1174 11.099C69.6187 11.099 69.1714 11.011 68.7754 10.835C68.3794 10.6517 68.064 10.406 67.8294 10.098C67.602 9.79 67.4774 9.449 67.4554 9.075H69.0064C69.0357 9.30967 69.1494 9.504 69.3474 9.658C69.5527 9.812 69.8057 9.889 70.1064 9.889C70.3997 9.889 70.627 9.83033 70.7884 9.713C70.957 9.59567 71.0414 9.44533 71.0414 9.262C71.0414 9.064 70.9387 8.91733 70.7334 8.822C70.5354 8.71933 70.2164 8.60933 69.7764 8.492C69.3217 8.382 68.9477 8.26833 68.6544 8.151C68.3684 8.03367 68.119 7.854 67.9064 7.612C67.701 7.37 67.5984 7.04367 67.5984 6.633C67.5984 6.29567 67.6937 5.98767 67.8844 5.709C68.0824 5.43033 68.361 5.21033 68.7204 5.049C69.087 4.88767 69.516 4.807 70.0074 4.807C70.7334 4.807 71.3127 4.99033 71.7454 5.357C72.178 5.71633 72.4164 6.204 72.4604 6.82H70.9864C70.9644 6.578 70.8617 6.38733 70.6784 6.248C70.5024 6.10133 70.264 6.028 69.9634 6.028C69.6847 6.028 69.4684 6.07933 69.3144 6.182C69.1677 6.28467 69.0944 6.42767 69.0944 6.611C69.0944 6.81633 69.197 6.974 69.4024 7.084C69.6077 7.18667 69.9267 7.293 70.3594 7.403C70.7994 7.513 71.1624 7.62667 71.4484 7.744C71.7344 7.86133 71.98 8.04467 72.1854 8.294C72.398 8.536 72.508 8.85867 72.5154 9.262C72.5154 9.614 72.4164 9.92933 72.2184 10.208C72.0277 10.4867 71.749 10.7067 71.3824 10.868C71.023 11.022 70.6014 11.099 70.1174 11.099ZM79.1066 11.099C78.5199 11.099 77.9919 10.9707 77.5226 10.714C77.0533 10.45 76.6829 10.0797 76.4116 9.603C76.1476 9.12633 76.0156 8.57633 76.0156 7.953C76.0156 7.32967 76.1513 6.77967 76.4226 6.303C76.7013 5.82633 77.0789 5.45967 77.5556 5.203C78.0323 4.939 78.5639 4.807 79.1506 4.807C79.7373 4.807 80.2689 4.939 80.7456 5.203C81.2223 5.45967 81.5963 5.82633 81.8676 6.303C82.1463 6.77967 82.2856 7.32967 82.2856 7.953C82.2856 8.57633 82.1426 9.12633 81.8566 9.603C81.5779 10.0797 81.1966 10.45 80.7126 10.714C80.2359 10.9707 79.7006 11.099 79.1066 11.099ZM79.1066 9.757C79.3853 9.757 79.6456 9.691 79.8876 9.559C80.1369 9.41967 80.3349 9.21433 80.4816 8.943C80.6283 8.67167 80.7016 8.34167 80.7016 7.953C80.7016 7.37367 80.5476 6.93 80.2396 6.622C79.9389 6.30667 79.5686 6.149 79.1286 6.149C78.6886 6.149 78.3183 6.30667 78.0176 6.622C77.7243 6.93 77.5776 7.37367 77.5776 7.953C77.5776 8.53233 77.7206 8.97967 78.0066 9.295C78.2999 9.603 78.6666 9.757 79.1066 9.757ZM86.7923 4.818C87.5183 4.818 88.1049 5.049 88.5523 5.511C88.9996 5.96567 89.2233 6.60367 89.2233 7.425V11H87.6833V7.634C87.6833 7.15 87.5623 6.77967 87.3203 6.523C87.0783 6.259 86.7483 6.127 86.3303 6.127C85.9049 6.127 85.5676 6.259 85.3183 6.523C85.0763 6.77967 84.9553 7.15 84.9553 7.634V11H83.4153V4.906H84.9553V5.665C85.1606 5.401 85.4209 5.19567 85.7363 5.049C86.0589 4.895 86.4109 4.818 86.7923 4.818Z" fill="#1E212A"/>
</svg>
