<svg width="74" height="11" viewBox="0 0 74 11" fill="none" xmlns="http://www.w3.org/2000/svg">
<path d="M12.74 0.964999L10.062 10H8.385L6.487 3.162L4.472 10L2.808 10.013L0.247 0.964999H1.82L3.692 8.323L5.72 0.964999H7.384L9.269 8.284L11.154 0.964999H12.74ZM17.0693 10.117C16.3933 10.117 15.7823 9.96533 15.2363 9.662C14.6903 9.35 14.2613 8.91667 13.9493 8.362C13.6373 7.79867 13.4813 7.14867 13.4813 6.412C13.4813 5.684 13.6416 5.03833 13.9623 4.475C14.283 3.91167 14.7206 3.47833 15.2753 3.175C15.83 2.87167 16.4496 2.72 17.1343 2.72C17.819 2.72 18.4386 2.87167 18.9933 3.175C19.548 3.47833 19.9856 3.91167 20.3063 4.475C20.627 5.03833 20.7873 5.684 20.7873 6.412C20.7873 7.14 20.6226 7.78567 20.2933 8.349C19.964 8.91233 19.5133 9.35 18.9413 9.662C18.378 9.96533 17.754 10.117 17.0693 10.117ZM17.0693 8.83C17.4506 8.83 17.806 8.739 18.1353 8.557C18.4733 8.375 18.7463 8.102 18.9543 7.738C19.1623 7.374 19.2663 6.932 19.2663 6.412C19.2663 5.892 19.1666 5.45433 18.9673 5.099C18.768 4.735 18.5036 4.462 18.1743 4.28C17.845 4.098 17.4896 4.007 17.1083 4.007C16.727 4.007 16.3716 4.098 16.0423 4.28C15.7216 4.462 15.466 4.735 15.2753 5.099C15.0846 5.45433 14.9893 5.892 14.9893 6.412C14.9893 7.18333 15.1843 7.78133 15.5743 8.206C15.973 8.622 16.4713 8.83 17.0693 8.83ZM23.7343 3.877C23.951 3.513 24.237 3.23133 24.5923 3.032C24.9563 2.824 25.3853 2.72 25.8793 2.72V4.254H25.5023C24.9217 4.254 24.4797 4.40133 24.1763 4.696C23.8817 4.99067 23.7343 5.502 23.7343 6.23V10H22.2523V2.837H23.7343V3.877ZM30.0756 6.425L33.3776 10H31.3756L28.7236 6.919V10H27.2416V0.38H28.7236V5.97L31.3236 2.837H33.3776L30.0756 6.425ZM44.0598 2.837L41.8368 10H40.2768L38.8338 4.709L37.3908 10H35.8308L33.5948 2.837H35.1028L36.5978 8.596L38.1188 2.837H39.6658L41.1218 8.57L42.6038 2.837H44.0598ZM51.7324 6.243C51.7324 6.51167 51.7151 6.75433 51.6804 6.971H46.2074C46.2507 7.543 46.463 8.00233 46.8444 8.349C47.2257 8.69567 47.6937 8.869 48.2484 8.869C49.0457 8.869 49.609 8.53533 49.9384 7.868H51.5374C51.3207 8.52667 50.9264 9.06833 50.3544 9.493C49.791 9.909 49.089 10.117 48.2484 10.117C47.5637 10.117 46.9484 9.96533 46.4024 9.662C45.865 9.35 45.4404 8.91667 45.1284 8.362C44.825 7.79867 44.6734 7.14867 44.6734 6.412C44.6734 5.67533 44.8207 5.02967 45.1154 4.475C45.4187 3.91167 45.839 3.47833 46.3764 3.175C46.9224 2.87167 47.5464 2.72 48.2484 2.72C48.9244 2.72 49.5267 2.86733 50.0554 3.162C50.584 3.45667 50.9957 3.87267 51.2904 4.41C51.585 4.93867 51.7324 5.54967 51.7324 6.243ZM50.1854 5.775C50.1767 5.229 49.9817 4.79133 49.6004 4.462C49.219 4.13267 48.7467 3.968 48.1834 3.968C47.672 3.968 47.2344 4.13267 46.8704 4.462C46.5064 4.78267 46.2897 5.22033 46.2204 5.775H50.1854ZM59.7558 6.243C59.7558 6.51167 59.7385 6.75433 59.7038 6.971H54.2308C54.2742 7.543 54.4865 8.00233 54.8678 8.349C55.2492 8.69567 55.7172 8.869 56.2718 8.869C57.0692 8.869 57.6325 8.53533 57.9618 7.868H59.5608C59.3442 8.52667 58.9498 9.06833 58.3778 9.493C57.8145 9.909 57.1125 10.117 56.2718 10.117C55.5872 10.117 54.9718 9.96533 54.4258 9.662C53.8885 9.35 53.4638 8.91667 53.1518 8.362C52.8485 7.79867 52.6968 7.14867 52.6968 6.412C52.6968 5.67533 52.8442 5.02967 53.1388 4.475C53.4422 3.91167 53.8625 3.47833 54.3998 3.175C54.9458 2.87167 55.5698 2.72 56.2718 2.72C56.9478 2.72 57.5502 2.86733 58.0788 3.162C58.6075 3.45667 59.0192 3.87267 59.3138 4.41C59.6085 4.93867 59.7558 5.54967 59.7558 6.243ZM58.2088 5.775C58.2002 5.229 58.0052 4.79133 57.6238 4.462C57.2425 4.13267 56.7702 3.968 56.2068 3.968C55.6955 3.968 55.2578 4.13267 54.8938 4.462C54.5298 4.78267 54.3132 5.22033 54.2438 5.775H58.2088ZM64.0483 6.425L67.3503 10H65.3483L62.6963 6.919V10H61.2143V0.38H62.6963V5.97L65.2963 2.837H67.3503L64.0483 6.425Z" fill="#1E212A"/>
<path d="M72.5335 1.173L73.1185 2.213L71.3375 2.876L73.1185 3.539L72.5205 4.605L71.0385 3.435L71.3115 5.32H70.1155L70.3625 3.435L68.8805 4.631L68.2565 3.526L70.0245 2.863L68.2565 2.226L68.8545 1.16L70.3755 2.33L70.1155 0.431999H71.3245L71.0385 2.33L72.5335 1.173Z" fill="#F24445"/>
</svg>
